<svg xmlns="http://www.w3.org/2000/svg" viewBox="0 0 512 512">
  <defs>
    <linearGradient id="bg" x1="0" y1="0" x2="1" y2="1">
      <stop stop-color="#5b9bff"/>
      <stop offset="1" stop-color="#8868d8"/>
    </linearGradient>
  </defs>
  <rect width="512" height="512" rx="112" fill="url(#bg)"/>
  <path d="M125 151c4-24 25-40 49-40h164c24 0 44 16 49 40l-22 231c-2 22-21 39-43 39H178c-22 0-41-17-43-39z" fill="#f8fbff" stroke="#18253b" stroke-width="14"/>
  <path d="M174 124v49M232 124v49M290 124v49M348 124v49" stroke="#18253b" stroke-width="16" stroke-linecap="round"/>
  <path d="M174 123c0-25 38-25 38 0M232 123c0-25 38-25 38 0M290 123c0-25 38-25 38 0M348 123c0-25 38-25 38 0" fill="none" stroke="#18253b" stroke-width="16" stroke-linecap="round"/>
  <path d="M185 235h142M185 286h142M185 337h108" stroke="#5b6b84" stroke-width="15" stroke-linecap="round"/>
  <path d="m321 421 22-39c4-7 11-12 19-13l43-5c-12 29-33 48-84 57z" fill="#d9dee9"/>
</svg>
